<svg id="svg" version="1.1" xmlns="http://www.w3.org/2000/svg" xmlns:xlink="http://www.w3.org/1999/xlink" width="400" height="400" viewBox="0, 0, 400,400"><g id="svgg"><path id="path0" d="M150.200 15.089 C 148.687 15.461,148.513 15.969,148.309 20.592 C 148.009 27.382,147.383 28.041,141.004 28.282 C 133.263 28.575,133.200 28.634,133.200 35.580 L 133.200 40.000 128.300 40.005 C 124.539 40.009,122.811 40.195,120.864 40.805 C 118.597 41.516,117.177 41.601,107.464 41.606 C 94.169 41.614,94.800 41.295,94.800 48.007 C 94.800 53.817,93.864 54.799,88.320 54.802 C 81.931 54.807,81.614 55.096,81.605 60.940 C 81.596 67.168,80.687 68.013,73.687 68.310 C 68.305 68.538,68.570 68.259,68.304 74.000 C 67.991 80.772,67.150 81.596,60.540 81.606 C 55.090 81.615,54.800 81.940,54.800 88.046 C 54.800 93.830,53.865 94.798,48.281 94.802 C 41.259 94.807,41.613 94.116,41.605 107.864 C 41.601 117.179,41.513 118.607,40.805 120.864 C 39.911 123.717,39.589 142.467,40.397 144.593 C 40.999 146.177,42.979 146.800,47.405 146.800 C 52.662 146.800,53.200 147.301,53.200 152.195 C 53.200 158.519,53.778 158.984,61.343 158.737 C 66.657 158.564,66.530 158.698,66.800 152.994 C 67.110 146.476,65.852 147.024,80.814 146.884 L 93.200 146.767 93.200 152.151 C 93.200 160.477,94.001 160.000,80.020 160.000 C 67.103 160.000,68.003 159.529,67.994 166.300 C 67.990 169.010,67.742 172.016,67.408 173.400 C 66.976 175.189,66.825 178.615,66.814 186.856 C 66.796 200.675,66.309 199.666,73.171 200.014 C 79.671 200.344,79.719 200.389,80.024 206.511 C 80.355 213.160,80.396 213.201,86.897 213.509 C 92.906 213.794,92.930 213.817,93.242 219.683 C 93.597 226.357,94.054 226.800,100.571 226.800 C 106.061 226.800,106.793 227.701,106.798 234.456 C 106.801 239.507,107.074 239.762,112.678 239.933 C 115.731 240.027,117.758 239.877,119.472 239.433 C 120.995 239.039,123.628 238.798,126.458 238.795 C 133.440 238.786,133.593 238.642,133.598 232.082 C 133.600 229.088,133.697 228.667,134.588 227.776 L 135.575 226.788 147.688 226.894 L 159.800 227.000 159.800 232.535 L 159.800 238.071 158.678 239.035 L 157.555 240.000 146.806 240.000 C 133.688 240.000,134.800 239.409,134.800 246.384 C 134.800 253.931,133.872 253.375,146.664 253.507 C 160.547 253.651,160.000 253.387,160.000 259.954 C 160.000 266.827,159.944 266.800,173.898 266.800 C 186.988 266.800,186.793 266.684,186.798 274.456 C 186.801 279.491,187.086 279.760,192.591 279.937 C 200.144 280.180,200.000 280.432,200.000 267.041 C 200.000 252.592,199.317 253.391,211.500 253.574 L 213.200 253.600 213.202 264.700 C 213.204 271.104,213.379 276.430,213.618 277.288 C 214.409 280.139,213.057 280.000,240.067 280.000 L 264.355 280.000 265.445 279.063 C 266.488 278.165,266.545 277.920,266.781 273.263 C 267.133 266.327,264.982 267.039,286.314 266.800 C 296.151 266.690,304.520 266.444,304.911 266.253 C 306.466 265.494,306.594 264.538,306.800 252.200 L 307.000 240.200 312.490 240.200 C 319.676 240.200,319.701 240.220,319.994 246.241 C 320.271 251.921,320.364 252.000,326.800 252.000 C 333.180 252.000,333.308 251.896,333.502 246.552 C 333.747 239.844,333.423 240.000,347.041 240.000 C 360.341 240.000,359.625 240.370,359.976 233.311 C 360.280 227.215,360.415 227.081,366.510 226.775 C 373.109 226.444,373.161 226.391,373.543 219.714 C 373.875 213.920,373.913 213.878,379.196 213.564 C 385.224 213.206,385.196 213.271,385.196 200.000 C 385.196 186.779,385.295 187.001,379.243 186.722 C 373.824 186.471,373.600 186.166,373.600 179.020 L 373.600 173.684 378.339 173.542 C 385.321 173.333,385.197 173.577,385.192 160.000 C 385.187 147.900,385.558 148.669,379.590 148.369 C 371.644 147.968,371.841 148.327,371.663 133.915 C 371.499 120.657,371.932 121.600,366.011 121.599 C 358.575 121.598,358.454 121.365,358.423 106.976 C 358.395 94.105,358.891 95.117,352.456 94.822 C 345.727 94.513,345.495 94.281,345.198 87.559 C 344.932 81.530,345.003 81.602,339.424 81.594 C 332.870 81.584,332.051 80.763,331.711 73.864 C 331.435 68.269,331.708 68.539,326.089 68.317 C 319.408 68.054,318.465 67.053,318.423 60.176 C 318.391 55.074,318.414 55.095,312.456 54.822 C 305.727 54.513,305.495 54.281,305.198 47.559 C 304.910 41.034,306.020 41.538,292.267 41.683 C 279.087 41.822,280.000 41.433,280.000 46.896 C 280.000 52.980,279.726 53.200,272.167 53.200 L 266.800 53.200 266.800 47.822 C 266.800 40.492,266.912 40.354,273.106 40.031 C 278.519 39.749,278.177 40.114,278.312 34.468 C 278.466 28.046,279.634 28.635,266.297 28.400 C 251.635 28.141,252.141 28.415,251.675 20.490 C 251.302 14.163,254.150 14.775,225.665 14.898 L 201.930 15.000 200.965 16.122 C 200.003 17.241,200.000 17.277,200.000 26.796 C 200.000 39.270,200.040 39.196,193.400 39.196 C 186.752 39.196,186.802 39.284,186.794 27.326 C 186.788 16.742,186.659 16.102,184.390 15.323 C 183.009 14.848,152.041 14.637,150.200 15.089 M144.349 40.442 C 145.046 40.685,145.825 41.270,146.080 41.742 C 146.607 42.719,147.033 50.617,146.643 52.173 L 146.385 53.200 140.974 53.200 C 133.545 53.200,133.600 53.255,133.600 45.885 C 133.600 42.942,133.720 40.413,133.867 40.267 C 134.310 39.823,142.989 39.968,144.349 40.442 M238.775 40.700 C 239.886 41.600,240.379 43.782,240.390 47.856 C 240.404 52.600,240.739 52.917,246.058 53.218 C 252.313 53.572,252.212 53.444,252.180 60.947 C 252.152 67.459,254.200 66.846,232.918 66.712 L 215.222 66.600 214.311 65.689 C 213.406 64.783,213.400 64.708,213.400 53.354 L 213.400 41.931 214.522 40.965 L 215.645 40.000 226.778 40.000 C 236.785 40.000,237.999 40.071,238.775 40.700 M198.583 41.665 C 200.231 42.416,200.478 44.289,200.313 54.758 C 200.106 67.859,201.303 66.800,186.696 66.800 C 173.937 66.800,174.718 67.103,174.478 62.069 C 174.095 54.075,174.477 53.503,180.404 53.200 C 186.185 52.904,186.400 52.700,186.400 47.536 C 186.400 43.735,187.001 41.814,188.295 41.477 C 189.828 41.077,197.605 41.219,198.583 41.665 M171.449 54.454 C 172.092 55.164,172.200 55.945,172.200 59.874 C 172.200 65.598,172.199 65.600,166.919 65.600 C 164.869 65.600,161.438 65.887,159.296 66.239 C 153.606 67.171,148.937 66.840,147.713 65.417 C 146.308 63.784,146.298 53.727,147.700 53.528 C 151.837 52.940,170.746 53.678,171.449 54.454 M266.631 54.579 C 267.347 57.432,266.635 63.640,265.478 64.635 C 263.879 66.009,256.503 66.103,255.166 64.766 C 253.969 63.569,254.137 55.072,255.376 54.167 C 256.928 53.034,266.329 53.379,266.631 54.579 M278.832 67.454 C 279.908 68.530,280.379 70.667,280.390 74.526 C 280.405 79.420,281.169 79.994,287.678 79.998 C 290.775 80.000,291.278 80.106,292.278 80.965 L 293.400 81.930 293.512 99.288 L 293.624 116.646 292.698 118.023 C 291.241 120.191,290.240 120.352,278.108 120.377 L 267.215 120.400 266.971 121.371 C 266.837 121.905,266.789 124.351,266.864 126.807 C 267.046 132.778,267.454 133.200,273.035 133.200 C 279.536 133.200,280.200 133.830,280.200 140.000 C 280.200 146.168,279.862 146.502,273.311 146.797 C 267.208 147.073,267.073 147.208,266.797 153.311 C 266.462 160.731,268.012 160.200,246.711 160.200 L 230.022 160.200 229.111 159.290 C 228.215 158.395,228.196 158.177,227.948 146.290 C 227.754 136.942,227.551 133.701,227.053 132.000 C 225.742 127.517,226.415 121.462,228.340 120.432 C 228.884 120.141,234.977 120.000,247.000 120.000 C 258.541 120.000,265.126 119.854,265.626 119.586 C 266.497 119.120,266.812 109.916,266.008 108.416 C 265.215 106.934,263.591 106.800,246.366 106.800 C 228.197 106.800,227.878 106.764,226.981 104.615 C 226.155 102.640,226.138 84.202,226.959 82.236 C 227.804 80.213,227.797 80.214,239.890 80.000 C 253.846 79.753,252.903 80.222,253.200 73.374 C 253.442 67.804,252.967 68.181,260.130 67.864 C 263.249 67.726,266.790 67.345,268.000 67.019 C 271.360 66.111,277.746 66.368,278.832 67.454 M172.869 68.662 C 173.487 69.222,173.600 69.960,173.600 73.440 C 173.600 77.213,173.680 77.649,174.565 78.678 L 175.530 79.800 193.554 80.000 L 211.579 80.200 212.489 81.110 C 213.563 82.184,214.149 102.109,213.176 104.458 C 212.296 106.583,212.279 106.586,200.150 106.800 C 186.061 107.049,187.052 106.532,186.888 113.710 C 186.736 120.407,185.441 119.765,199.575 120.000 C 214.216 120.244,213.326 119.867,213.535 125.919 C 213.626 128.578,213.467 130.596,213.035 132.266 C 212.686 133.613,212.392 136.309,212.383 138.258 C 212.345 145.968,211.740 146.800,206.178 146.800 C 200.648 146.800,200.274 146.400,199.974 140.178 C 199.674 133.973,199.327 133.600,193.837 133.600 C 187.115 133.600,186.717 133.182,186.414 125.800 L 186.200 120.600 180.800 120.338 C 177.830 120.194,174.860 119.860,174.200 119.597 C 173.540 119.333,170.414 118.994,167.253 118.844 C 159.113 118.459,160.000 121.578,160.000 93.338 L 160.000 69.964 160.982 68.982 C 162.257 67.707,171.537 67.457,172.869 68.662 M158.600 120.421 C 159.480 120.643,162.685 120.935,165.723 121.072 C 173.201 121.408,173.200 121.408,173.200 127.047 C 173.200 130.962,173.136 131.301,172.218 132.218 L 171.236 133.200 152.418 133.200 L 133.600 133.200 133.613 127.700 C 133.626 121.848,133.817 121.163,135.636 120.436 C 136.921 119.922,156.564 119.910,158.600 120.421 M304.349 120.442 C 305.046 120.685,305.825 121.270,306.080 121.742 C 306.607 122.719,307.033 130.617,306.643 132.173 L 306.385 133.200 300.974 133.200 C 293.788 133.200,293.600 133.048,293.600 127.244 C 293.600 122.495,293.960 121.352,295.697 120.598 C 297.264 119.917,302.568 119.821,304.349 120.442 M133.200 139.018 C 133.200 144.083,133.151 144.413,132.235 145.478 L 131.270 146.600 113.335 146.717 C 103.471 146.781,94.995 146.733,94.500 146.609 C 93.214 146.288,93.100 136.306,94.364 134.744 L 95.129 133.800 112.430 133.600 C 121.945 133.490,130.511 133.463,131.465 133.540 L 133.200 133.681 133.200 139.018 M332.436 134.744 C 333.103 135.568,333.200 136.369,333.200 141.026 L 333.200 146.364 331.879 146.612 C 331.152 146.748,325.647 146.801,319.644 146.730 L 308.730 146.600 307.765 145.478 C 306.313 143.789,306.258 133.733,307.700 133.528 C 312.152 132.895,331.719 133.858,332.436 134.744 M224.771 134.654 C 225.562 135.660,225.600 136.195,225.607 146.354 C 225.612 153.829,225.790 158.072,226.205 160.600 C 226.661 163.372,226.797 168.076,226.798 181.056 C 226.800 197.049,226.839 197.960,227.564 198.856 C 228.327 199.799,228.340 199.800,239.733 200.000 C 254.215 200.254,253.200 199.676,253.200 207.670 L 253.200 213.200 242.100 213.202 C 230.929 213.204,228.561 213.443,227.543 214.668 C 227.110 215.189,226.959 218.967,226.800 233.296 L 226.600 251.270 225.478 252.235 C 224.412 253.151,224.084 253.200,218.996 253.200 L 213.637 253.200 213.518 234.409 L 213.400 215.617 212.291 214.509 L 211.183 213.400 198.991 213.274 L 186.800 213.147 186.800 207.796 C 186.800 202.717,186.849 202.388,187.765 201.322 L 188.730 200.200 199.465 200.096 C 211.670 199.978,211.739 199.969,212.695 198.512 C 213.342 197.525,213.424 195.324,213.686 171.818 C 214.027 141.192,214.276 135.637,215.362 134.440 C 216.643 133.028,223.616 133.186,224.771 134.654 M358.154 147.252 C 359.712 147.962,360.037 149.356,359.913 154.814 L 359.800 159.800 347.464 159.800 L 335.129 159.800 334.364 158.856 C 333.694 158.027,333.600 157.229,333.600 152.356 L 333.600 146.800 345.381 146.800 C 353.285 146.800,357.489 146.949,358.154 147.252 M372.169 161.170 C 373.181 162.121,373.200 162.244,373.200 167.670 L 373.200 173.200 367.822 173.200 C 360.305 173.200,360.249 173.150,360.067 166.210 C 359.887 159.371,359.383 159.913,365.768 160.069 C 370.810 160.192,371.201 160.259,372.169 161.170 M186.643 214.627 C 187.341 217.411,186.583 224.399,185.461 225.522 L 184.383 226.600 173.492 226.725 C 167.501 226.794,162.015 226.741,161.300 226.607 L 160.000 226.364 160.000 221.608 C 160.000 213.177,159.193 213.629,174.292 213.613 L 186.385 213.600 186.643 214.627 M278.182 213.848 C 279.566 214.379,280.000 216.174,280.000 221.362 L 280.000 226.364 278.700 226.607 C 277.985 226.741,272.479 226.794,266.465 226.725 L 255.530 226.600 254.565 225.478 C 253.649 224.412,253.600 224.085,253.600 218.978 L 253.600 213.600 265.567 213.600 C 272.149 213.600,277.826 213.712,278.182 213.848 M305.095 227.412 C 306.315 228.266,306.795 230.367,306.798 234.867 C 306.801 240.572,308.186 240.000,294.380 240.000 L 282.445 240.000 281.322 239.035 C 280.210 238.078,279.342 229.491,280.146 227.396 C 280.493 226.492,303.804 226.507,305.095 227.412 " stroke="none" fill="#ec7c54" fill-rule="evenodd"></path><path id="path1" d="M147.604 13.146 C 146.385 13.499,146.056 14.978,146.023 20.256 C 145.989 25.646,145.895 25.725,139.136 26.081 C 125.374 26.805,121.164 27.103,120.893 27.372 C 120.732 27.533,120.510 29.805,120.400 32.423 C 120.209 36.967,120.150 37.233,119.091 38.291 L 117.983 39.400 106.010 39.600 C 91.801 39.837,93.072 39.249,92.779 45.719 C 92.460 52.744,92.798 52.406,85.694 52.788 C 79.595 53.116,79.857 52.849,79.561 59.047 C 79.239 65.782,79.304 65.718,72.565 66.039 C 66.114 66.347,66.347 66.114,66.039 72.565 C 65.718 79.304,65.782 79.239,59.047 79.561 C 52.795 79.859,53.056 79.602,52.779 85.719 C 52.460 92.744,52.798 92.406,45.694 92.788 C 39.250 93.135,39.836 91.863,39.600 106.010 L 39.400 117.982 38.291 119.091 C 37.233 120.150,36.967 120.209,32.423 120.400 C 29.805 120.510,27.514 120.750,27.332 120.933 C 27.149 121.116,26.948 126.336,26.885 132.533 C 26.733 147.380,27.133 146.641,19.108 146.900 C 16.527 146.983,14.277 147.189,14.108 147.358 C 13.612 147.854,13.484 183.171,13.972 184.835 C 14.702 187.324,15.529 187.741,20.251 188.003 C 25.299 188.283,25.186 188.163,25.194 193.224 C 25.202 198.445,25.133 198.520,20.082 198.788 C 15.572 199.027,14.698 199.482,13.976 201.965 C 13.480 203.670,13.619 252.153,14.121 252.655 C 14.298 252.832,16.769 253.071,19.611 253.188 C 27.137 253.497,26.552 252.372,26.800 266.991 C 27.036 280.873,26.432 279.617,33.008 279.901 C 37.537 280.096,38.211 280.220,39.148 281.025 L 40.200 281.930 40.322 293.783 L 40.445 305.637 41.448 306.018 C 42.000 306.228,44.156 306.400,46.239 306.400 C 52.927 306.400,53.600 307.091,53.600 313.950 C 53.600 319.277,53.741 319.503,57.289 319.840 C 65.893 320.659,67.708 319.636,67.992 313.806 C 68.261 308.278,68.528 308.000,73.568 308.000 C 78.949 308.000,78.561 307.078,78.814 320.467 C 78.971 328.740,79.175 332.124,79.570 333.000 C 79.905 333.743,80.185 336.380,80.306 339.929 C 80.539 346.715,80.250 346.400,86.239 346.400 C 92.927 346.400,93.600 347.091,93.600 353.950 C 93.600 360.325,92.741 359.962,107.878 359.985 C 120.816 360.004,120.075 359.581,120.385 367.121 C 120.503 369.989,120.750 372.485,120.933 372.668 C 121.116 372.851,126.576 373.090,133.068 373.200 L 144.871 373.400 145.780 374.458 C 146.593 375.404,146.709 376.047,146.883 380.563 C 146.990 383.339,147.210 385.744,147.372 385.905 C 147.878 386.413,170.025 386.503,171.719 386.004 C 174.631 385.146,174.797 384.443,174.799 372.962 C 174.800 360.749,174.497 361.400,180.181 361.400 C 185.553 361.400,185.196 360.625,185.223 372.349 C 185.248 383.538,185.441 384.619,187.600 385.703 C 189.106 386.460,251.904 386.629,252.655 385.879 C 252.832 385.702,253.071 383.231,253.188 380.389 C 253.497 372.863,252.372 373.448,266.991 373.200 C 274.793 373.067,278.910 372.851,279.203 372.558 C 279.449 372.311,279.750 369.870,279.884 367.026 C 280.235 359.596,278.992 360.243,293.396 360.000 C 307.533 359.762,306.400 360.275,306.400 354.111 C 306.400 347.108,307.115 346.400,314.183 346.400 C 319.681 346.400,319.598 346.482,319.848 340.788 C 320.178 333.265,320.060 333.384,327.488 333.126 C 333.419 332.921,332.931 333.421,333.191 327.279 C 333.502 319.944,333.262 320.178,340.788 319.848 C 346.543 319.595,346.397 319.757,346.409 313.624 C 346.416 310.313,346.643 308.156,347.209 306.027 C 347.892 303.461,348.001 301.735,348.005 293.427 C 348.013 280.668,347.742 281.200,354.234 281.200 C 356.056 281.200,358.055 280.997,358.674 280.748 C 359.293 280.499,362.568 280.152,365.951 279.977 C 369.530 279.791,372.290 279.471,372.551 279.210 C 372.853 278.908,373.065 274.911,373.200 266.991 C 373.448 252.372,372.863 253.497,380.389 253.188 C 383.231 253.071,385.702 252.832,385.879 252.655 C 386.251 252.284,386.845 219.691,386.843 199.800 C 386.840 182.942,386.855 176.862,386.936 160.320 C 387.012 144.849,387.650 146.342,380.828 146.035 C 373.604 145.709,374.244 146.972,374.000 132.554 C 373.763 118.577,374.190 119.605,368.624 119.590 C 360.521 119.569,360.804 120.016,360.783 107.224 C 360.766 97.786,360.508 93.975,359.839 93.306 C 359.695 93.161,357.243 92.940,354.392 92.814 C 347.420 92.506,347.478 92.562,347.200 85.809 C 346.945 79.588,347.217 79.860,340.953 79.561 C 334.213 79.239,334.275 79.300,333.984 72.588 C 333.704 66.124,333.929 66.348,327.389 66.039 C 320.983 65.736,320.808 65.589,320.783 60.456 C 320.765 57.021,320.341 53.808,319.839 53.306 C 319.695 53.161,317.243 52.940,314.392 52.814 C 307.420 52.506,307.478 52.562,307.200 45.809 C 306.930 39.238,308.192 39.838,294.145 39.600 C 279.835 39.358,281.006 39.941,280.717 32.912 C 280.414 25.562,281.348 26.011,266.344 26.004 C 253.379 25.999,254.334 26.523,253.972 19.224 C 253.813 16.023,253.524 13.764,253.235 13.475 C 252.804 13.043,220.142 12.876,194.400 13.173 C 190.990 13.213,179.290 13.158,168.400 13.052 C 157.510 12.946,148.152 12.988,147.604 13.146 M184.390 15.323 C 186.659 16.102,186.788 16.742,186.794 27.326 C 186.802 39.284,186.752 39.196,193.400 39.196 C 200.040 39.196,200.000 39.270,200.000 26.796 C 200.000 17.277,200.003 17.241,200.965 16.122 L 201.930 15.000 225.665 14.898 C 254.150 14.775,251.302 14.163,251.675 20.490 C 252.141 28.415,251.635 28.141,266.297 28.400 C 279.634 28.635,278.466 28.046,278.312 34.468 C 278.177 40.114,278.519 39.749,273.106 40.031 C 266.912 40.354,266.800 40.492,266.800 47.822 L 266.800 53.200 272.167 53.200 C 279.726 53.200,280.000 52.980,280.000 46.896 C 280.000 41.433,279.087 41.822,292.267 41.683 C 306.020 41.538,304.910 41.034,305.198 47.559 C 305.495 54.281,305.727 54.513,312.456 54.822 C 318.414 55.095,318.391 55.074,318.423 60.176 C 318.465 67.053,319.408 68.054,326.089 68.317 C 331.708 68.539,331.435 68.269,331.711 73.864 C 332.051 80.763,332.870 81.584,339.424 81.594 C 345.003 81.602,344.932 81.530,345.198 87.559 C 345.495 94.281,345.727 94.513,352.456 94.822 C 358.891 95.117,358.395 94.105,358.423 106.976 C 358.454 121.365,358.575 121.598,366.011 121.599 C 371.932 121.600,371.499 120.657,371.663 133.915 C 371.841 148.327,371.644 147.968,379.590 148.369 C 385.558 148.669,385.187 147.900,385.192 160.000 C 385.197 173.577,385.321 173.333,378.339 173.542 L 373.600 173.684 373.600 179.020 C 373.600 186.166,373.824 186.471,379.243 186.722 C 385.295 187.001,385.196 186.779,385.196 200.000 C 385.196 213.271,385.224 213.206,379.196 213.564 C 373.913 213.878,373.875 213.920,373.543 219.714 C 373.161 226.391,373.109 226.444,366.510 226.775 C 360.415 227.081,360.280 227.215,359.976 233.311 C 359.625 240.370,360.341 240.000,347.041 240.000 C 333.423 240.000,333.747 239.844,333.502 246.552 C 333.308 251.896,333.180 252.000,326.800 252.000 C 320.364 252.000,320.271 251.921,319.994 246.241 C 319.701 240.220,319.676 240.200,312.490 240.200 L 307.000 240.200 306.800 252.200 C 306.594 264.538,306.466 265.494,304.911 266.253 C 304.520 266.444,296.151 266.690,286.314 266.800 C 264.982 267.039,267.133 266.327,266.781 273.263 C 266.545 277.920,266.488 278.165,265.445 279.063 L 264.355 280.000 240.067 280.000 C 213.057 280.000,214.409 280.139,213.618 277.288 C 213.379 276.430,213.204 271.104,213.202 264.700 L 213.200 253.600 211.500 253.574 C 199.317 253.391,200.000 252.592,200.000 267.041 C 200.000 280.432,200.144 280.180,192.591 279.937 C 187.086 279.760,186.801 279.491,186.798 274.456 C 186.793 266.684,186.988 266.800,173.898 266.800 C 159.944 266.800,160.000 266.827,160.000 259.954 C 160.000 253.387,160.547 253.651,146.664 253.507 C 133.872 253.375,134.800 253.931,134.800 246.384 C 134.800 239.409,133.688 240.000,146.806 240.000 L 157.555 240.000 158.678 239.035 L 159.800 238.071 159.800 232.535 L 159.800 227.000 147.688 226.894 L 135.575 226.788 134.588 227.776 C 133.697 228.667,133.600 229.088,133.598 232.082 C 133.593 238.642,133.440 238.786,126.458 238.795 C 123.628 238.798,120.995 239.039,119.472 239.433 C 117.758 239.877,115.731 240.027,112.678 239.933 C 107.074 239.762,106.801 239.507,106.798 234.456 C 106.793 227.701,106.061 226.800,100.571 226.800 C 94.054 226.800,93.597 226.357,93.242 219.683 C 92.930 213.817,92.906 213.794,86.897 213.509 C 80.396 213.201,80.355 213.160,80.024 206.511 C 79.719 200.389,79.671 200.344,73.171 200.014 C 66.309 199.666,66.796 200.675,66.814 186.856 C 66.825 178.615,66.976 175.189,67.408 173.400 C 67.742 172.016,67.990 169.010,67.994 166.300 C 68.003 159.529,67.103 160.000,80.020 160.000 C 94.001 160.000,93.200 160.477,93.200 152.151 L 93.200 146.767 80.814 146.884 C 65.852 147.024,67.110 146.476,66.800 152.994 C 66.530 158.698,66.657 158.564,61.343 158.737 C 53.778 158.984,53.200 158.519,53.200 152.195 C 53.200 147.301,52.662 146.800,47.405 146.800 C 42.979 146.800,40.999 146.177,40.397 144.593 C 39.589 142.467,39.911 123.717,40.805 120.864 C 41.513 118.607,41.601 117.179,41.605 107.864 C 41.613 94.116,41.259 94.807,48.281 94.802 C 53.865 94.798,54.800 93.830,54.800 88.046 C 54.800 81.940,55.090 81.615,60.540 81.606 C 67.150 81.596,67.991 80.772,68.304 74.000 C 68.570 68.259,68.305 68.538,73.687 68.310 C 80.687 68.013,81.596 67.168,81.605 60.940 C 81.614 55.096,81.931 54.807,88.320 54.802 C 93.864 54.799,94.800 53.817,94.800 48.007 C 94.800 41.295,94.169 41.614,107.464 41.606 C 117.177 41.601,118.597 41.516,120.864 40.805 C 122.811 40.195,124.539 40.009,128.300 40.005 L 133.200 40.000 133.200 35.580 C 133.200 28.634,133.263 28.575,141.004 28.282 C 147.383 28.041,148.009 27.382,148.309 20.592 C 148.513 15.969,148.687 15.461,150.200 15.089 C 152.041 14.637,183.009 14.848,184.390 15.323 M133.867 40.267 C 133.720 40.413,133.600 42.942,133.600 45.885 C 133.600 53.255,133.545 53.200,140.974 53.200 L 146.385 53.200 146.643 52.173 C 147.033 50.617,146.607 42.719,146.080 41.742 C 145.289 40.276,135.089 39.044,133.867 40.267 M147.700 53.528 C 146.298 53.727,146.308 63.784,147.713 65.417 C 148.937 66.840,153.606 67.171,159.296 66.239 C 161.438 65.887,164.869 65.600,166.919 65.600 C 172.199 65.600,172.200 65.598,172.200 59.874 C 172.200 53.148,173.190 53.649,159.649 53.512 C 153.572 53.450,148.195 53.458,147.700 53.528 M255.376 54.167 C 254.137 55.072,253.969 63.569,255.166 64.766 C 256.503 66.103,263.879 66.009,265.478 64.635 C 266.635 63.640,267.347 57.432,266.631 54.579 C 266.329 53.379,256.928 53.034,255.376 54.167 M135.636 120.436 C 133.817 121.163,133.626 121.848,133.613 127.700 L 133.600 133.200 152.418 133.200 L 171.236 133.200 172.218 132.218 C 173.136 131.301,173.200 130.962,173.200 127.047 C 173.200 121.408,173.201 121.408,165.723 121.072 C 162.685 120.935,159.480 120.643,158.600 120.421 C 156.564 119.910,136.921 119.922,135.636 120.436 M295.697 120.598 C 293.960 121.352,293.600 122.495,293.600 127.244 C 293.600 133.048,293.788 133.200,300.974 133.200 L 306.385 133.200 306.643 132.173 C 307.033 130.617,306.607 122.719,306.080 121.742 C 305.159 120.035,298.644 119.317,295.697 120.598 M112.430 133.600 L 95.129 133.800 94.364 134.744 C 93.100 136.306,93.214 146.288,94.500 146.609 C 94.995 146.733,103.471 146.781,113.335 146.717 L 131.270 146.600 132.235 145.478 C 133.151 144.413,133.200 144.083,133.200 139.018 L 133.200 133.681 131.465 133.540 C 130.511 133.463,121.945 133.490,112.430 133.600 M307.700 133.528 C 306.258 133.733,306.313 143.789,307.765 145.478 L 308.730 146.600 319.644 146.730 C 325.647 146.801,331.152 146.748,331.879 146.612 L 333.200 146.364 333.200 141.026 C 333.200 133.193,334.349 133.846,320.136 133.600 C 313.791 133.490,308.195 133.458,307.700 133.528 M215.362 134.440 C 214.276 135.637,214.027 141.192,213.686 171.818 C 213.424 195.324,213.342 197.525,212.695 198.512 C 211.739 199.969,211.670 199.978,199.465 200.096 L 188.730 200.200 187.765 201.322 C 186.849 202.388,186.800 202.717,186.800 207.796 L 186.800 213.147 198.991 213.274 L 211.183 213.400 212.291 214.509 L 213.400 215.617 213.518 234.409 L 213.637 253.200 218.996 253.200 C 224.084 253.200,224.412 253.151,225.478 252.235 L 226.600 251.270 226.800 233.296 C 226.959 218.967,227.110 215.189,227.543 214.668 C 228.561 213.443,230.929 213.204,242.100 213.202 L 253.200 213.200 253.200 207.670 C 253.200 199.676,254.215 200.254,239.733 200.000 C 228.340 199.800,228.327 199.799,227.564 198.856 C 226.839 197.960,226.800 197.049,226.798 181.056 C 226.797 168.076,226.661 163.372,226.205 160.600 C 225.790 158.072,225.612 153.829,225.607 146.354 C 225.598 132.999,225.861 133.600,220.033 133.600 C 216.570 133.600,216.037 133.696,215.362 134.440 M333.600 152.356 C 333.600 157.229,333.694 158.027,334.364 158.856 L 335.129 159.800 347.464 159.800 L 359.800 159.800 359.913 154.814 C 360.103 146.416,360.799 146.800,345.381 146.800 L 333.600 146.800 333.600 152.356 M360.166 160.544 C 360.038 160.877,359.994 163.427,360.067 166.210 C 360.249 173.150,360.305 173.200,367.822 173.200 L 373.200 173.200 373.200 167.670 C 373.200 160.186,373.264 160.252,365.768 160.069 C 361.259 159.959,360.361 160.035,360.166 160.544 M63.511 162.623 C 64.687 163.446,64.860 170.029,63.738 171.269 C 62.728 172.384,56.734 172.334,55.600 171.200 C 54.635 170.235,54.396 163.626,55.300 162.892 C 56.566 161.864,62.166 161.681,63.511 162.623 M37.771 175.428 C 39.179 176.836,39.210 183.618,37.814 184.639 C 36.321 185.731,29.354 185.407,28.569 184.209 C 27.583 182.704,27.884 176.166,28.976 175.368 C 30.124 174.529,36.919 174.576,37.771 175.428 M161.516 214.145 C 160.337 215.041,160.000 216.699,160.000 221.608 L 160.000 226.364 161.300 226.607 C 162.015 226.741,167.501 226.794,173.492 226.725 L 184.383 226.600 185.461 225.522 C 186.583 224.399,187.341 217.411,186.643 214.627 L 186.385 213.600 174.292 213.613 C 165.006 213.622,162.041 213.746,161.516 214.145 M253.600 218.978 C 253.600 224.085,253.649 224.412,254.565 225.478 L 255.530 226.600 266.465 226.725 C 272.479 226.794,277.985 226.741,278.700 226.607 L 280.000 226.364 280.000 221.362 C 280.000 213.079,280.969 213.600,265.567 213.600 L 253.600 213.600 253.600 218.978 M280.146 227.396 C 279.342 229.491,280.210 238.078,281.322 239.035 L 282.445 240.000 294.380 240.000 C 308.186 240.000,306.801 240.572,306.798 234.867 C 306.795 230.367,306.315 228.266,305.095 227.412 C 303.804 226.507,280.493 226.492,280.146 227.396 M130.539 242.749 C 131.497 243.544,131.496 250.209,130.538 251.269 C 129.830 252.051,123.585 252.359,122.493 251.666 C 120.539 250.426,120.849 243.261,122.894 242.395 C 124.219 241.833,129.744 242.089,130.539 242.749 M118.051 255.461 C 118.992 256.595,118.810 263.911,117.824 264.632 C 116.321 265.731,109.357 265.412,108.569 264.209 C 107.583 262.704,107.884 256.166,108.976 255.368 C 110.165 254.499,117.313 254.573,118.051 255.461 M331.371 256.229 C 331.848 256.705,332.000 257.713,332.000 260.400 C 332.000 265.108,331.900 265.200,326.800 265.200 C 323.815 265.200,322.710 265.053,322.252 264.595 C 321.048 263.391,320.907 257.517,322.050 256.140 C 322.738 255.310,330.527 255.384,331.371 256.229 M104.809 268.800 C 105.431 269.786,105.292 276.922,104.632 277.824 C 103.834 278.916,97.296 279.217,95.791 278.231 C 94.383 277.309,94.266 270.134,95.636 268.764 C 96.700 267.700,104.133 267.729,104.809 268.800 M344.400 268.800 C 345.736 270.136,345.590 277.326,344.209 278.231 C 342.704 279.217,336.166 278.916,335.368 277.824 C 334.338 276.415,334.583 269.397,335.689 268.623 C 337.119 267.621,343.348 267.748,344.400 268.800 M90.266 281.625 C 91.980 282.277,91.987 282.328,91.994 293.300 C 92.001 305.934,92.344 305.200,86.449 305.200 C 81.087 305.200,81.427 305.900,81.274 294.580 C 81.126 283.710,81.363 282.208,83.313 281.644 C 85.104 281.126,88.927 281.116,90.266 281.625 M211.200 295.600 C 212.029 296.429,212.477 316.267,211.694 317.440 C 210.876 318.665,205.748 319.311,202.903 318.549 C 201.409 318.148,201.135 316.009,201.274 305.801 C 201.430 294.279,201.174 294.800,206.662 294.800 C 209.867 294.800,210.514 294.914,211.200 295.600 M198.052 322.364 C 198.793 323.280,198.820 324.021,198.712 340.295 L 198.600 357.271 197.612 358.071 C 196.201 359.213,189.448 359.028,188.567 357.824 C 187.695 356.630,187.729 323.765,188.604 322.516 C 189.776 320.842,196.728 320.730,198.052 322.364 " stroke="none" fill="#b43c54" fill-rule="evenodd"></path><path id="path2" d="M142.000 4.378 L 142.000 8.756 130.300 8.878 C 115.304 9.034,115.200 9.099,115.200 18.245 L 115.200 21.945 103.628 22.073 C 88.723 22.237,88.869 22.150,88.823 30.839 L 88.800 35.078 84.180 35.342 C 76.312 35.791,75.524 36.566,75.273 44.100 L 75.116 48.800 70.658 48.801 C 63.240 48.802,62.318 49.709,62.071 57.253 L 61.919 61.906 56.964 62.071 C 49.644 62.315,48.863 63.156,48.823 70.839 L 48.800 75.078 44.180 75.342 C 36.320 75.791,35.524 76.570,35.274 84.068 L 35.118 88.737 30.187 88.868 C 22.092 89.085,22.075 89.117,22.031 104.439 L 22.000 115.078 17.351 115.344 C 8.782 115.833,9.035 115.386,8.873 130.300 L 8.746 142.000 4.373 142.000 L 0.000 142.000 0.000 200.000 L 0.000 258.000 4.373 258.000 L 8.746 258.000 8.873 269.700 C 9.037 284.770,8.813 284.372,17.300 284.711 L 22.000 284.899 22.030 295.749 C 22.073 310.939,22.060 310.915,30.187 311.132 L 35.118 311.263 35.259 315.932 C 35.488 323.485,36.452 324.444,44.100 324.726 L 48.800 324.899 48.823 329.149 C 48.864 336.870,49.669 337.732,57.029 337.941 L 62.000 338.082 62.030 342.341 C 62.086 350.051,62.908 350.937,70.187 351.132 L 75.118 351.263 75.259 355.932 C 75.487 363.476,76.457 364.444,84.060 364.724 L 88.720 364.896 88.860 369.819 C 89.092 377.966,89.054 377.946,104.300 377.977 L 115.200 378.000 115.218 381.900 C 115.259 391.034,115.533 391.199,130.700 391.199 L 142.000 391.200 142.000 395.600 L 142.000 400.000 200.000 400.000 L 258.000 400.000 258.000 395.600 L 258.000 391.200 269.213 391.200 C 284.509 391.200,284.442 391.236,284.727 382.700 L 284.884 378.000 295.855 378.000 C 310.970 378.000,310.902 378.037,311.141 369.718 L 311.282 364.800 314.821 364.800 C 323.337 364.800,324.800 363.413,324.800 355.340 L 324.800 351.200 329.213 351.200 C 336.856 351.200,337.727 350.374,337.941 342.918 L 338.082 338.000 342.454 338.000 C 350.051 338.000,350.927 337.164,351.141 329.718 L 351.282 324.800 354.821 324.800 C 363.328 324.800,364.800 323.409,364.800 315.373 L 364.800 311.265 369.772 311.133 C 377.969 310.914,377.946 310.957,377.977 295.749 L 378.000 284.899 382.700 284.711 C 391.189 284.371,390.965 284.770,391.122 269.700 L 391.244 258.000 395.622 258.000 L 400.000 258.000 400.000 200.000 L 400.000 142.000 395.627 142.000 L 391.254 142.000 391.127 130.300 C 390.963 115.233,391.311 115.838,382.535 115.337 L 378.000 115.078 377.977 104.239 C 377.946 89.057,377.961 89.086,369.813 88.868 L 364.882 88.737 364.726 84.068 C 364.475 76.543,363.686 75.748,356.054 75.338 L 351.279 75.081 351.139 70.170 C 350.932 62.875,350.056 62.063,342.341 62.023 L 338.082 62.000 337.941 57.082 C 337.727 49.636,336.851 48.800,329.255 48.800 L 324.884 48.800 324.727 44.100 C 324.475 36.538,323.693 35.749,316.054 35.338 L 311.279 35.081 311.139 30.170 C 310.909 22.039,310.936 22.054,295.742 22.023 L 284.884 22.000 284.727 17.300 C 284.442 8.764,284.509 8.800,269.213 8.800 L 258.000 8.800 258.000 4.400 L 258.000 0.000 200.000 0.000 L 142.000 0.000 142.000 4.378 M194.400 13.173 C 220.142 12.876,252.804 13.043,253.235 13.475 C 253.524 13.764,253.813 16.023,253.972 19.224 C 254.334 26.523,253.379 25.999,266.344 26.004 C 281.348 26.011,280.414 25.562,280.717 32.912 C 281.006 39.941,279.835 39.358,294.145 39.600 C 308.192 39.838,306.930 39.238,307.200 45.809 C 307.478 52.562,307.420 52.506,314.392 52.814 C 317.243 52.940,319.695 53.161,319.839 53.306 C 320.341 53.808,320.765 57.021,320.783 60.456 C 320.808 65.589,320.983 65.736,327.389 66.039 C 333.929 66.348,333.704 66.124,333.984 72.588 C 334.275 79.300,334.213 79.239,340.953 79.561 C 347.217 79.860,346.945 79.588,347.200 85.809 C 347.478 92.562,347.420 92.506,354.392 92.814 C 357.243 92.940,359.695 93.161,359.839 93.306 C 360.508 93.975,360.766 97.786,360.783 107.224 C 360.804 120.016,360.521 119.569,368.624 119.590 C 374.190 119.605,373.763 118.577,374.000 132.554 C 374.244 146.972,373.604 145.709,380.828 146.035 C 387.650 146.342,387.012 144.849,386.936 160.320 C 386.855 176.862,386.840 182.942,386.843 199.800 C 386.845 219.691,386.251 252.284,385.879 252.655 C 385.702 252.832,383.231 253.071,380.389 253.188 C 372.863 253.497,373.448 252.372,373.200 266.991 C 373.065 274.911,372.853 278.908,372.551 279.210 C 372.290 279.471,369.530 279.791,365.951 279.977 C 362.568 280.152,359.293 280.499,358.674 280.748 C 358.055 280.997,356.056 281.200,354.234 281.200 C 347.742 281.200,348.013 280.668,348.005 293.427 C 348.001 301.735,347.892 303.461,347.209 306.027 C 346.643 308.156,346.416 310.313,346.409 313.624 C 346.397 319.757,346.543 319.595,340.788 319.848 C 333.262 320.178,333.502 319.944,333.191 327.279 C 332.931 333.421,333.419 332.921,327.488 333.126 C 320.060 333.384,320.178 333.265,319.848 340.788 C 319.598 346.482,319.681 346.400,314.183 346.400 C 307.115 346.400,306.400 347.108,306.400 354.111 C 306.400 360.275,307.533 359.762,293.396 360.000 C 278.992 360.243,280.235 359.596,279.884 367.026 C 279.750 369.870,279.449 372.311,279.203 372.558 C 278.910 372.851,274.793 373.067,266.991 373.200 C 252.372 373.448,253.497 372.863,253.188 380.389 C 253.071 383.231,252.832 385.702,252.655 385.879 C 251.904 386.629,189.106 386.460,187.600 385.703 C 185.441 384.619,185.248 383.538,185.223 372.349 C 185.196 360.625,185.553 361.400,180.181 361.400 C 174.497 361.400,174.800 360.749,174.799 372.962 C 174.797 384.443,174.631 385.146,171.719 386.004 C 170.025 386.503,147.878 386.413,147.372 385.905 C 147.210 385.744,146.990 383.339,146.883 380.563 C 146.709 376.047,146.593 375.404,145.780 374.458 L 144.871 373.400 133.068 373.200 C 126.576 373.090,121.116 372.851,120.933 372.668 C 120.750 372.485,120.503 369.989,120.385 367.121 C 120.075 359.581,120.816 360.004,107.878 359.985 C 92.741 359.962,93.600 360.325,93.600 353.950 C 93.600 347.091,92.927 346.400,86.239 346.400 C 80.250 346.400,80.539 346.715,80.306 339.929 C 80.185 336.380,79.905 333.743,79.570 333.000 C 79.175 332.124,78.971 328.740,78.814 320.467 C 78.561 307.078,78.949 308.000,73.568 308.000 C 68.528 308.000,68.261 308.278,67.992 313.806 C 67.708 319.636,65.893 320.659,57.289 319.840 C 53.741 319.503,53.600 319.277,53.600 313.950 C 53.600 307.091,52.927 306.400,46.239 306.400 C 44.156 306.400,42.000 306.228,41.448 306.018 L 40.445 305.637 40.322 293.783 L 40.200 281.930 39.148 281.025 C 38.211 280.220,37.537 280.096,33.008 279.901 C 26.432 279.617,27.036 280.873,26.800 266.991 C 26.552 252.372,27.137 253.497,19.611 253.188 C 16.769 253.071,14.298 252.832,14.121 252.655 C 13.619 252.153,13.480 203.670,13.976 201.965 C 14.698 199.482,15.572 199.027,20.082 198.788 C 25.133 198.520,25.202 198.445,25.194 193.224 C 25.186 188.163,25.299 188.283,20.251 188.003 C 15.529 187.741,14.702 187.324,13.972 184.835 C 13.484 183.171,13.612 147.854,14.108 147.358 C 14.277 147.189,16.527 146.983,19.108 146.900 C 27.133 146.641,26.733 147.380,26.885 132.533 C 26.948 126.336,27.149 121.116,27.332 120.933 C 27.514 120.750,29.805 120.510,32.423 120.400 C 36.967 120.209,37.233 120.150,38.291 119.091 L 39.400 117.982 39.600 106.010 C 39.836 91.863,39.250 93.135,45.694 92.788 C 52.798 92.406,52.460 92.744,52.779 85.719 C 53.056 79.602,52.795 79.859,59.047 79.561 C 65.782 79.239,65.718 79.304,66.039 72.565 C 66.347 66.114,66.114 66.347,72.565 66.039 C 79.304 65.718,79.239 65.782,79.561 59.047 C 79.857 52.849,79.595 53.116,85.694 52.788 C 92.798 52.406,92.460 52.744,92.779 45.719 C 93.072 39.249,91.801 39.837,106.010 39.600 L 117.983 39.400 119.091 38.291 C 120.150 37.233,120.209 36.967,120.400 32.423 C 120.510 29.805,120.732 27.533,120.893 27.372 C 121.164 27.103,125.374 26.805,139.136 26.081 C 145.895 25.725,145.989 25.646,146.023 20.256 C 146.056 14.978,146.385 13.499,147.604 13.146 C 148.152 12.988,157.510 12.946,168.400 13.052 C 179.290 13.158,190.990 13.213,194.400 13.173 M56.600 162.289 C 54.999 162.683,54.800 163.187,54.800 166.849 C 54.800 171.635,55.150 172.000,59.738 172.000 C 64.179 172.000,64.400 171.758,64.400 166.891 C 64.400 162.176,62.242 160.903,56.600 162.289 M28.976 175.368 C 27.884 176.166,27.583 182.704,28.569 184.209 C 29.354 185.407,36.321 185.731,37.814 184.639 C 39.210 183.618,39.179 176.836,37.771 175.428 C 36.919 174.576,30.124 174.529,28.976 175.368 M122.894 242.395 C 120.849 243.261,120.539 250.426,122.493 251.666 C 123.585 252.359,129.830 252.051,130.538 251.269 C 131.496 250.209,131.497 243.544,130.539 242.749 C 129.744 242.089,124.219 241.833,122.894 242.395 M108.976 255.368 C 107.884 256.166,107.583 262.704,108.569 264.209 C 109.357 265.412,116.321 265.731,117.824 264.632 C 118.810 263.911,118.992 256.595,118.051 255.461 C 117.313 254.573,110.165 254.499,108.976 255.368 M322.050 256.140 C 320.907 257.517,321.048 263.391,322.252 264.595 C 322.710 265.053,323.815 265.200,326.800 265.200 C 331.900 265.200,332.000 265.108,332.000 260.400 C 332.000 255.668,331.924 255.600,326.620 255.600 C 323.646 255.600,322.373 255.751,322.050 256.140 M95.636 268.764 C 94.266 270.134,94.383 277.309,95.791 278.231 C 97.296 279.217,103.834 278.916,104.632 277.824 C 105.292 276.922,105.431 269.786,104.809 268.800 C 104.133 267.729,96.700 267.700,95.636 268.764 M335.689 268.623 C 334.583 269.397,334.338 276.415,335.368 277.824 C 336.166 278.916,342.704 279.217,344.209 278.231 C 345.590 277.326,345.736 270.136,344.400 268.800 C 343.348 267.748,337.119 267.621,335.689 268.623 M83.313 281.644 C 81.363 282.208,81.126 283.710,81.274 294.580 C 81.427 305.900,81.087 305.200,86.449 305.200 C 92.344 305.200,92.001 305.934,91.994 293.300 C 91.991 287.635,91.852 282.786,91.686 282.525 C 90.899 281.288,86.241 280.798,83.313 281.644 M202.162 295.641 C 201.467 296.408,201.389 297.301,201.274 305.801 C 201.135 316.009,201.409 318.148,202.903 318.549 C 205.748 319.311,210.876 318.665,211.694 317.440 C 212.477 316.267,212.029 296.429,211.200 295.600 C 209.981 294.381,203.276 294.411,202.162 295.641 M190.104 321.463 C 188.016 321.910,188.000 322.055,188.000 340.213 C 188.000 354.114,188.099 357.182,188.567 357.824 C 189.448 359.028,196.201 359.213,197.612 358.071 L 198.600 357.271 198.712 340.295 C 198.846 320.056,199.183 321.452,194.139 321.340 C 192.413 321.302,190.597 321.357,190.104 321.463 " stroke="none" fill="#35242f" fill-rule="evenodd"></path><path id="path3" d="M214.522 40.965 L 213.400 41.931 213.400 53.354 C 213.400 64.708,213.406 64.783,214.311 65.689 L 215.222 66.600 232.918 66.712 C 254.200 66.846,252.152 67.459,252.180 60.947 C 252.212 53.444,252.313 53.572,246.058 53.218 C 240.739 52.917,240.404 52.600,240.390 47.856 C 240.367 39.802,240.710 40.000,226.778 40.000 L 215.645 40.000 214.522 40.965 M188.295 41.477 C 187.001 41.814,186.400 43.735,186.400 47.536 C 186.400 52.700,186.185 52.904,180.404 53.200 C 174.477 53.503,174.095 54.075,174.478 62.069 C 174.718 67.103,173.937 66.800,186.696 66.800 C 201.303 66.800,200.106 67.859,200.313 54.758 C 200.478 44.289,200.231 42.416,198.583 41.665 C 197.605 41.219,189.828 41.077,188.295 41.477 M268.000 67.019 C 266.790 67.345,263.249 67.726,260.130 67.864 C 252.967 68.181,253.442 67.804,253.200 73.374 C 252.903 80.222,253.846 79.753,239.890 80.000 C 227.797 80.214,227.804 80.213,226.959 82.236 C 226.138 84.202,226.155 102.640,226.981 104.615 C 227.878 106.764,228.197 106.800,246.366 106.800 C 263.591 106.800,265.215 106.934,266.008 108.416 C 266.812 109.916,266.497 119.120,265.626 119.586 C 265.126 119.854,258.541 120.000,247.000 120.000 C 234.977 120.000,228.884 120.141,228.340 120.432 C 226.415 121.462,225.742 127.517,227.053 132.000 C 227.551 133.701,227.754 136.942,227.948 146.290 C 228.196 158.177,228.215 158.395,229.111 159.290 L 230.022 160.200 246.711 160.200 C 268.012 160.200,266.462 160.731,266.797 153.311 C 267.073 147.208,267.208 147.073,273.311 146.797 C 279.862 146.502,280.200 146.168,280.200 140.000 C 280.200 133.830,279.536 133.200,273.035 133.200 C 267.454 133.200,267.046 132.778,266.864 126.807 C 266.789 124.351,266.837 121.905,266.971 121.371 L 267.215 120.400 278.108 120.377 C 290.240 120.352,291.241 120.191,292.698 118.023 L 293.624 116.646 293.512 99.288 L 293.400 81.930 292.278 80.965 C 291.278 80.106,290.775 80.000,287.678 79.998 C 281.169 79.994,280.405 79.420,280.390 74.526 C 280.379 70.667,279.908 68.530,278.832 67.454 C 277.746 66.368,271.360 66.111,268.000 67.019 M160.982 68.982 L 160.000 69.964 160.000 93.338 C 160.000 121.578,159.113 118.459,167.253 118.844 C 170.414 118.994,173.540 119.333,174.200 119.597 C 174.860 119.860,177.830 120.194,180.800 120.338 L 186.200 120.600 186.414 125.800 C 186.717 133.182,187.115 133.600,193.837 133.600 C 199.327 133.600,199.674 133.973,199.974 140.178 C 200.274 146.400,200.648 146.800,206.178 146.800 C 211.740 146.800,212.345 145.968,212.383 138.258 C 212.392 136.309,212.686 133.613,213.035 132.266 C 213.467 130.596,213.626 128.578,213.535 125.919 C 213.326 119.867,214.216 120.244,199.575 120.000 C 185.441 119.765,186.736 120.407,186.888 113.710 C 187.052 106.532,186.061 107.049,200.150 106.800 C 212.279 106.586,212.296 106.583,213.176 104.458 C 214.149 102.109,213.563 82.184,212.489 81.110 L 211.579 80.200 193.554 80.000 L 175.530 79.800 174.565 78.678 C 173.680 77.649,173.600 77.213,173.600 73.440 C 173.600 67.925,173.690 68.000,167.050 68.000 C 162.183 68.000,161.921 68.042,160.982 68.982 " stroke="none" fill="#fccc74" fill-rule="evenodd"></path></g></svg>